<?xml version="1.0" encoding="utf-8"?><svg viewBox="0 0 41 41" xmlns="http://www.w3.org/2000/svg" xmlns:xlink="http://www.w3.org/1999/xlink"><style>:root>svg{display:none}:root>svg:target{display:block}</style><svg fill="none" viewBox="0 0 18 11" id="arrow-next" xmlns="http://www.w3.org/2000/svg"><path d="M9.681 10.66l7.809-7.59a.919.919 0 000-1.325L16.579.86A.984.984 0 0015.217.86L8.999 6.873 2.782.86A.984.984 0 001.42.86l-.911.885a.919.919 0 000 1.326l7.808 7.59a.984.984 0 001.364 0z" fill="#fff"/></svg><svg fill="none" viewBox="0 0 18 11" id="arrow-next-black" xmlns="http://www.w3.org/2000/svg"><path d="M9.455 10.693l7.808-7.591a.92.92 0 000-1.326l-.91-.886A.984.984 0 0014.99.89L8.773 6.905 2.555.89A.984.984 0 001.193.89l-.91.886a.92.92 0 000 1.326l7.808 7.591a.984.984 0 001.364 0z" fill="#001E64"/></svg><svg fill="none" viewBox="0 0 18 12" id="arrow-prev" xmlns="http://www.w3.org/2000/svg"><path d="M8.319.966L.51 8.556a.919.919 0 000 1.325l.911.886a.984.984 0 001.362.001l6.218-6.015 6.217 6.015a.984.984 0 001.362-.001l.911-.886a.919.919 0 000-1.325L9.683.966a.984.984 0 00-1.364 0z" fill="#fff"/></svg><svg fill="none" viewBox="0 0 18 11" id="arrow-prev-black" xmlns="http://www.w3.org/2000/svg"><path d="M8.545.538L.737 8.13a.92.92 0 000 1.326l.91.885a.984.984 0 001.363.002l6.217-6.017 6.218 6.017a.984.984 0 001.362-.002l.91-.885a.92.92 0 000-1.326L9.91.538a.984.984 0 00-1.364 0z" fill="#001E64"/></svg><svg fill="none" viewBox="0 0 24 40" id="facebook" xmlns="http://www.w3.org/2000/svg"><path d="M14.264 39.264h-6.49c-1.083 0-1.965-.849-1.965-1.892V23.285H2.023c-1.084 0-1.966-.85-1.966-1.892v-6.036c0-1.043.882-1.892 1.966-1.892h3.786v-3.023c0-2.997.978-5.547 2.827-7.374 1.859-1.835 4.455-2.804 7.51-2.804l4.949.007c1.082.002 1.962.85 1.962 1.892v5.605c0 1.043-.881 1.892-1.965 1.892H17.76c-1.016 0-1.275.197-1.33.257-.092.1-.2.381-.2 1.16v2.388h4.612c.347 0 .683.082.972.237.624.336 1.012.97 1.012 1.655l-.003 6.036c0 1.043-.882 1.892-1.966 1.892H16.23v14.087c0 1.043-.882 1.892-1.966 1.892zm-6.08-2.287h5.67V22.261c0-.696.589-1.263 1.312-1.263h5.281l.003-5.247h-5.284c-.723 0-1.312-.566-1.312-1.263v-3.412c0-.893.094-1.909.795-2.672.846-.923 2.18-1.03 3.11-1.03h2.922V2.556l-4.537-.007c-4.91 0-7.96 3.024-7.96 7.892v4.046c0 .696-.588 1.263-1.312 1.263h-4.44v5.247h4.44c.724 0 1.312.567 1.312 1.263v14.716zM21.09 2.557z" fill="#C4C4C4"/></svg><svg fill="none" viewBox="0 0 40 41" id="instagram" xmlns="http://www.w3.org/2000/svg"><path d="M28.828.95H10.7C4.8.95 0 5.75 0 11.65v18.128c0 5.9 4.8 10.7 10.7 10.7h18.129c5.9 0 10.7-4.8 10.7-10.7V11.649c0-5.9-4.8-10.7-10.7-10.7zm8.383 28.828c0 4.622-3.76 8.382-8.383 8.382H10.7c-4.622 0-8.383-3.76-8.383-8.382V11.649c0-4.622 3.76-8.382 8.383-8.382h18.129c4.622 0 8.382 3.76 8.382 8.382v18.129z" fill="#001E64"/><path d="M19.762 9.905c-5.96 0-10.808 4.849-10.808 10.809 0 5.96 4.848 10.808 10.808 10.808s10.809-4.849 10.809-10.808c0-5.96-4.849-10.809-10.809-10.809zm0 19.3c-4.681 0-8.49-3.81-8.49-8.491 0-4.682 3.809-8.491 8.49-8.491 4.682 0 8.491 3.809 8.491 8.49 0 4.683-3.809 8.491-8.49 8.491zM30.83 6.067a3.197 3.197 0 00-3.193 3.193 3.197 3.197 0 003.193 3.194 3.198 3.198 0 003.195-3.194 3.197 3.197 0 00-3.195-3.193zm0 4.07a.878.878 0 010-1.753.877.877 0 010 1.753z" fill="#001E64"/></svg><svg fill="none" viewBox="0 0 30 30" id="phone-icon" xmlns="http://www.w3.org/2000/svg"><path d="M28.91 1.442L22.817.036a1.415 1.415 0 00-1.612.814l-2.812 6.563a1.403 1.403 0 00.404 1.64l3.55 2.906a21.715 21.715 0 01-10.382 10.383l-2.906-3.55a1.405 1.405 0 00-1.64-.405L.855 21.199a1.423 1.423 0 00-.82 1.618l1.406 6.093c.146.633.709 1.09 1.371 1.09C17.82 30 30 17.842 30 2.813c0-.656-.451-1.225-1.09-1.371z" fill="#001E64"/></svg><svg fill="none" viewBox="0 0 41 32" id="telegram" xmlns="http://www.w3.org/2000/svg"><path d="M40.198.802A1.436 1.436 0 0038.58.354L1.887 13.804a2.078 2.078 0 00-1.343 1.71 2.08 2.08 0 00.881 1.975l5.245 3.632a1.63 1.63 0 001.706.098l11.377-6.085-8.867 6.716a1.696 1.696 0 00-.665 1.345v6.22c0 .643.347 1.23.905 1.536a1.7 1.7 0 001.767-.08l3.984-2.682 3.919 2.71a2.045 2.045 0 001.582.321 2.086 2.086 0 001.336-.946l16.6-27.767a1.49 1.49 0 00-.116-1.705zM21.873 28.765l-4.058-2.806a1.635 1.635 0 00-1.847-.012l-3.402 2.288v-4.689l15.657-11.859c.7-.53.875-1.494.41-2.242a1.63 1.63 0 00-2.172-.589L7.65 18.92l-4.436-3.072L37.002 3.46 21.873 28.766z" fill="#C4C4C4"/></svg><svg fill="none" viewBox="0 0 41 40" id="whatsapp" xmlns="http://www.w3.org/2000/svg"><path d="M34.443 5.955A19.042 19.042 0 0020.888.341h-.002c-2.532 0-5 .49-7.335 1.458a19.074 19.074 0 00-6.218 4.156A19.043 19.043 0 001.72 19.51c0 3.053.737 6.088 2.133 8.791L.63 37.506a1.762 1.762 0 00.42 1.842 1.76 1.76 0 001.842.42l9.205-3.222a19.226 19.226 0 008.791 2.133c5.12 0 9.934-1.994 13.555-5.614a19.044 19.044 0 005.614-13.555c0-5.12-1.994-9.934-5.614-13.555zm-1.64 25.47a16.739 16.739 0 01-11.915 4.936c-2.753 0-5.489-.681-7.91-1.97a1.785 1.785 0 00-1.424-.11L3.19 37.206l2.927-8.363a1.786 1.786 0 00-.11-1.424 16.893 16.893 0 01-1.97-7.91c0-4.501 1.752-8.733 4.935-11.915a16.742 16.742 0 0111.914-4.936h.001c4.501 0 8.733 1.753 11.915 4.936A16.739 16.739 0 0137.74 19.51a16.74 16.74 0 01-4.936 11.915z" fill="#C4C4C4"/><path d="M28.012 21.222a2.264 2.264 0 00-3.198 0l-.965.965a14.038 14.038 0 01-5.638-5.638l.965-.965a2.264 2.264 0 000-3.198l-2.6-2.6a2.264 2.264 0 00-3.198 0l-2.079 2.08c-1.19 1.19-1.25 3.238-.167 5.765.94 2.194 2.66 4.606 4.845 6.79 2.184 2.184 4.596 3.905 6.79 4.846 1.2.514 2.293.77 3.236.77 1.043 0 1.904-.313 2.53-.938l2.078-2.08v.001c.428-.427.663-.995.663-1.6 0-.604-.235-1.172-.663-1.599l-2.599-2.599zm-1.12 6.238c-.34.34-1.384.459-3.212-.324-1.93-.827-4.083-2.374-6.064-4.354-1.98-1.981-3.526-4.134-4.353-6.064-.784-1.827-.664-2.873-.325-3.213l2.04-2.039 2.519 2.52-1.208 1.207a1.769 1.769 0 00-.327 2.06 16.355 16.355 0 007.183 7.183 1.77 1.77 0 002.06-.327l1.208-1.207 2.52 2.519-2.04 2.039z" fill="#C4C4C4"/></svg></svg>